<?xml version="1.0" encoding="UTF-8" standalone="no"?>
<!-- Created with Inkscape (http://www.inkscape.org/) -->

<svg
   xmlns:dc="http://purl.org/dc/elements/1.1/"
   xmlns:cc="http://creativecommons.org/ns#"
   xmlns:rdf="http://www.w3.org/1999/02/22-rdf-syntax-ns#"
   xmlns:svg="http://www.w3.org/2000/svg"
   xmlns="http://www.w3.org/2000/svg"
   xmlns:sodipodi="http://sodipodi.sourceforge.net/DTD/sodipodi-0.dtd"
   xmlns:inkscape="http://www.inkscape.org/namespaces/inkscape"
   width="5cm"
   height="5cm"
   viewBox="0 0 50 49.999998"
   version="1.1"
   id="svg44"
   inkscape:version="0.92.3 (2405546, 2018-03-11)"
   sodipodi:docname="LOGO.svg">
  <defs
     id="defs38" />
  <sodipodi:namedview
     id="base"
     pagecolor="#ffffff"
     bordercolor="#666666"
     borderopacity="1.0"
     inkscape:pageopacity="0.0"
     inkscape:pageshadow="2"
     inkscape:zoom="2"
     inkscape:cx="149.78912"
     inkscape:cy="110.35631"
     inkscape:document-units="cm"
     inkscape:current-layer="layer1"
     showgrid="false"
     units="cm"
     showguides="true"
     inkscape:window-width="1366"
     inkscape:window-height="705"
     inkscape:window-x="-8"
     inkscape:window-y="-8"
     inkscape:window-maximized="1" />
  <metadata
     id="metadata41">
    <rdf:RDF>
      <cc:Work
         rdf:about="">
        <dc:format>image/svg+xml</dc:format>
        <dc:type
           rdf:resource="http://purl.org/dc/dcmitype/StillImage" />
        <dc:title></dc:title>
      </cc:Work>
    </rdf:RDF>
  </metadata>
  <g
     inkscape:label="Capa 1"
     inkscape:groupmode="layer"
     id="layer1"
     transform="translate(0,-247.00002)">
    <path
       id="path7666"
       d="m 0.92436451,289.11793 c 2.33573559,-2.01124 4.41605249,-4.21868 6.30111299,-6.5124 0.6375302,-0.77574 1.2315857,-1.57395 1.8473862,-2.36089 2.1125983,-2.82497 3.9504433,-5.78065 5.4884513,-8.83521 0.783209,-1.55547 0.967288,-2.05625 1.626819,-3.60947 0.968315,-2.38755 1.752231,-4.8196 2.488383,-7.25881 0.302777,-1.05791 0.529928,-2.12836 0.758364,-3.19781 0.126717,-0.57595 0.342156,-1.13679 0.61686,-1.67773 0.48183,-0.82952 1.414876,-0.99414 2.670357,-1.33864 0.113384,-0.031 0.130419,0.1633 0.170183,0.25381 0.05797,0.13205 0.08079,0.27241 0.121089,0.40861 0.674034,3.65672 1.549122,7.28679 2.346785,10.92693 1.258275,5.73286 2.423918,11.47809 3.736814,17.20316 0,0 -1.608992,0.68558 -1.608992,0.68558 v 0 c -1.1478,-5.74484 -2.321408,-11.48807 -3.754802,-17.19237 -0.91845,-3.56543 -1.891758,-7.12083 -2.911755,-10.66842 -0.044,-0.11556 -0.07997,-0.23327 -0.132024,-0.34658 -0.01434,-0.0328 -0.104722,-0.07 -0.06842,-0.089 0.685838,-0.35646 1.422713,-0.64553 2.125415,-0.98014 0.04386,-0.0214 -0.102617,0.015 -0.145508,0.0375 -0.111309,0.0569 -0.177374,0.16543 -0.243468,0.24964 -0.296113,0.52943 -0.541603,1.07612 -0.674982,1.64876 -0.251227,1.09273 -0.55474,2.1771 -0.875152,3.2581 -0.79673,2.47132 -1.658054,4.93107 -2.679752,7.34925 -0.693451,1.57325 -0.88657,2.07488 -1.701303,3.65059 -1.589464,3.07406 -3.481078,6.04359 -5.602542,8.90274 -0.606483,0.78594 -1.1965093,1.58025 -1.8194893,2.35784 -1.7609171,2.19801 -3.6772005,4.31559 -5.7191192,6.3507 0,0 -2.36069119,0.78438 -2.36069119,0.78438 z"
       inkscape:connector-curvature="0"
       style="fill:#008080;stroke-width:0.15305507" />
    <path
       id="path7668"
       d="m 2.4123782,276.04123 c 3.9543453,0.0755 7.7696618,-1.48889 11.3104678,-2.67791 5.589097,-2.02046 11.061134,-4.24743 16.417829,-6.63826 1.888356,-0.84282 3.768791,-1.69813 5.619564,-2.593 3.190155,-1.54246 5.661191,-2.97014 8.755227,-4.68034 1.341917,-0.80848 2.683848,-1.61699 4.025764,-2.42548 0,0 1.483372,-0.47295 1.483372,-0.47295 v 0 c -1.378549,0.82185 -2.757113,1.64371 -4.135661,2.46559 -1.583587,0.87023 -3.13836,1.77521 -4.750774,2.61072 -9.173811,4.75368 -18.850841,8.86659 -28.738931,12.57261 -3.8332053,1.33622 -7.7579703,2.98803 -12.03934369,3.03522 0,0 2.05248589,-1.1962 2.05248589,-1.1962 z"
       inkscape:connector-curvature="0"
       style="fill:#4d4d4d;stroke-width:0.15305507" />
  </g>
</svg>
